<?xml version="1.0" encoding="UTF-8" standalone="no"?>
<svg
   xmlns:dc="http://purl.org/dc/elements/1.1/"
   xmlns:cc="http://creativecommons.org/ns#"
   xmlns:rdf="http://www.w3.org/1999/02/22-rdf-syntax-ns#"
   xmlns:svg="http://www.w3.org/2000/svg"
   xmlns="http://www.w3.org/2000/svg"
   xmlns:sodipodi="http://sodipodi.sourceforge.net/DTD/sodipodi-0.dtd"
   xmlns:inkscape="http://www.inkscape.org/namespaces/inkscape"
   version="1.1"
   viewBox="0 0 59.999997 35.999999"
   stroke-miterlimit="10"
   id="svg3405"
   inkscape:version="0.91 r13725"
   sodipodi:docname="logo.svg"
   width="60"
   height="36"
   style="fill:none;stroke:none;stroke-linecap:square;stroke-miterlimit:10">
  <metadata
     id="metadata3434">
    <rdf:RDF>
      <cc:Work
         rdf:about="">
        <dc:format>image/svg+xml</dc:format>
        <dc:type
           rdf:resource="http://purl.org/dc/dcmitype/StillImage" />
        <dc:title></dc:title>
      </cc:Work>
    </rdf:RDF>
  </metadata>
  <defs
     id="defs3432" />
  <sodipodi:namedview
     pagecolor="#ffffff"
     bordercolor="#666666"
     borderopacity="1"
     objecttolerance="10"
     gridtolerance="10"
     guidetolerance="10"
     inkscape:pageopacity="0"
     inkscape:pageshadow="2"
     inkscape:window-width="1319"
     inkscape:window-height="744"
     id="namedview3430"
     showgrid="false"
     inkscape:zoom="1.705555"
     inkscape:cx="288.26904"
     inkscape:cy="176.18898"
     inkscape:window-x="47"
     inkscape:window-y="24"
     inkscape:window-maximized="1"
     inkscape:current-layer="g3410" />
  <clipPath
     id="p.0">
    <path
       d="m 0,0 576.5381,0 0,352.37796 L 0,352.37796 0,0 Z"
       id="path3408"
       inkscape:connector-curvature="0"
       style="clip-rule:nonzero" />
  </clipPath>
  <g
     clip-path="url(#p.0)"
     id="g3410"
     transform="translate(0,-316.37796)">
    <path
       d="m 0,0 576.5381,0 0,352.37796 -576.5381,0 z"
       id="path3412"
       inkscape:connector-curvature="0"
       style="fill:#000000;fill-opacity:0;fill-rule:nonzero" />
    <path
       style="fill:#000000"
       d="m 25.356537,316.37796 c -1.5e-5,0 -0.06265,0.0126 -0.112988,0.0228 -0.03849,-0.008 -0.09502,-0.0192 -0.09504,-0.0192 l -20.2361922,0 c -1.302519,0 -2.5525979,0.51789 -3.4736178,1.43891 C 0.5176791,318.74148 0,319.99156 0,321.29408 l 0,26.17114 a 0.86516445,0.86516445 0 0 0 0.017741,0.17403 c 0.094429,2.62116 2.2513395,4.7385 4.8945761,4.7385 l 20.2359789,2.1e-4 c 2e-6,0 0.0013,-2.1e-4 0.0013,-2.1e-4 a 0.86516445,0.86516445 0 0 0 0.151643,-0.0144 c 0.01523,0.003 0.05511,0.0109 0.05512,0.0109 l 25.869759,0 c 1.601359,0 3.138146,-0.63668 4.270478,-1.76902 1.132343,-1.13233 1.768804,-2.6689 1.768804,-4.27027 l 0,-23.91763 c 0,-3.31655 -2.700534,-6.0241 -6.013938,-6.03801 a 0.86516445,0.86516445 0 0 0 -0.02535,-0.001 l -25.86954,-1.7e-4 z m 0.797914,1.19666 -8.44e-4,0.004 c 0,0 -0.003,0.005 -0.0031,0.005 a 0.86516445,0.86516445 0 0 0 0.004,-0.009 z m -0.140659,0.5335 25.212292,2.1e-4 c 2.390059,0 4.309127,1.91907 4.309127,4.30912 l 0,0.0118 0,23.9058 c 0,1.14316 -0.453798,2.23866 -1.262137,3.04699 -0.808331,0.80834 -1.90383,1.26214 -3.04699,1.26214 l -25.005104,0 4.23e-4,-32.53589 -0.207611,0 0,-2.1e-4 z m -6.396845,1.45686 3.686718,0 0,18.98947 c 0,2.33166 -0.282163,4.13785 -0.846492,5.41857 -0.563203,1.27959 -1.456439,2.25506 -2.679713,2.92639 -1.222149,0.67134 -2.657186,1.00701 -4.305115,1.00701 -2.445422,0 -4.317506,-0.70288 -5.6162482,-2.10863 -1.298744,-1.40688 -1.922772,-3.49805 -1.872083,-6.2735 l 3.3268322,-0.4562 c 0.08786,2.12891 0.486607,3.58647 1.196242,4.3727 0.709633,0.78511 1.691857,1.17766 2.946671,1.17766 0.924777,0 1.722833,-0.21233 2.39417,-0.63699 0.672464,-0.42465 1.135415,-1.00137 1.388856,-1.73015 0.253442,-0.72878 0.380162,-1.89123 0.380162,-3.48735 l 0,-19.19898 z m 21.980498,7.11852 0,15.48185 1.762258,0 0,-1.40406 c 0.753565,1.105 1.792108,1.6575 3.115633,1.6575 1.330282,0 2.470768,-0.52434 3.42145,-1.57302 0.950685,-1.04981 1.426027,-2.53554 1.426027,-4.45718 0,-0.80988 -0.112636,-1.57021 -0.33792,-2.28097 -0.225281,-0.71076 -0.536732,-1.31789 -0.934352,-1.82139 -0.397619,-0.5035 -0.904503,-0.89437 -1.520644,-1.17259 -0.616144,-0.27822 -1.269459,-0.41733 -1.959943,-0.41733 -1.245803,0 -2.269704,0.5035 -3.071703,1.51051 l 0,-5.52332 -1.900806,0 z m -7.465944,4.01281 c -1.387729,0 -2.563694,0.41564 -3.527897,1.24693 -1.154563,0.99912 -1.731845,2.53722 -1.731845,4.61431 0,1.89348 0.483792,3.34373 1.451371,4.35073 0.968709,1.00701 2.238165,1.51051 3.808371,1.51051 0.977719,0 1.879968,-0.22866 2.706747,-0.68598 0.827908,-0.45844 1.458131,-1.10106 1.890669,-1.92784 0.433665,-0.82678 0.650498,-1.96219 0.650498,-3.40624 0,-1.78085 -0.489422,-3.17646 -1.468266,-4.18684 -0.978846,-1.01039 -2.238727,-1.51558 -3.779648,-1.51558 z m 12.269492,1.56288 c 0.824527,0 1.52684,0.34863 2.106937,1.04587 0.581224,0.69724 0.871836,1.77803 0.871836,3.24235 0,1.42941 -0.303001,2.50512 -0.909007,3.22715 -0.604878,0.7209 -1.32296,1.08135 -2.154246,1.08135 -1.020522,0 -1.829843,-0.48943 -2.427964,-1.46827 -0.36608,-0.59812 -0.54912,-1.56964 -0.54912,-2.91457 0,-1.3652 0.302438,-2.40881 0.907317,-3.13084 0.606006,-0.72202 1.324087,-1.08304 2.154247,-1.08304 z m -12.269492,0.0118 c 0.936041,0 1.718893,0.35707 2.348551,1.07121 0.630787,0.71414 0.946179,1.76508 0.946179,3.15281 0,1.47108 -0.313702,2.56594 -0.941109,3.28459 -0.626281,0.71752 -1.410821,1.07628 -2.353621,1.07628 -0.950684,0 -1.73973,-0.35707 -2.367137,-1.07121 -0.626281,-0.71527 -0.93942,-1.79098 -0.93942,-3.22715 0,-1.43616 0.313139,-2.50962 0.93942,-3.22038 0.627407,-0.71077 1.416453,-1.06615 2.367137,-1.06615 z"
       id="path3414"
       inkscape:connector-curvature="0" />
    <path
       d="m 528,65.596756 0,221.184434 c 0,12.69027 -5.0412,24.86077 -14.01459,33.83416 -8.97336,8.97339 -21.14386,14.01456 -33.83413,14.01456 l -239.23788,0 c -0.001,0 -0.003,-10e-4 -0.003,-0.003 l 0.003,-316.879275 0,0 c 0,-0.0015 0.001,-0.0026 0.003,-0.0026 l 239.23524,0.0026 0,0 C 506.57739,17.748015 528,39.170619 528,65.596739 Z"
       id="path3418"
       inkscape:connector-curvature="0"
       style="fill:#000000;fill-opacity:0;fill-rule:nonzero" />
    <path
       d="m 38.46719,0 242.83466,0 0,334.64566 -242.83466,0 z"
       id="path3422"
       inkscape:connector-curvature="0"
       style="fill:#000000;fill-opacity:0;fill-rule:nonzero" />
    <path
       d="m 209.65092,8.897637 336.72437,0 0,334.645663 -336.72437,0 z"
       id="path3426"
       inkscape:connector-curvature="0"
       style="fill:#000000;fill-opacity:0;fill-rule:nonzero" />
  </g>
</svg>
