<svg xmlns="http://www.w3.org/2000/svg" xmlns:xlink="http://www.w3.org/1999/xlink" version="1.1" id="Calque_1" x="0px" y="0px" viewBox="0 0 150 150" xml:space="preserve">
<style type="text/css">
	.st0{clip-path:url(#SVGID_2_);fill:url(#SVGID_3_);}
	.st1{clip-path:url(#SVGID_2_);}
	.st2{opacity:0.5;fill:#FFFFFF;}
	.st3{opacity:0.26;}
	.st4{clip-path:url(#SVGID_5_);fill:#FFFFFF;}
	.st5{clip-path:url(#SVGID_2_);fill:#FFFFFF;}
	.st6{fill:#323132;}
	.st7{font-family:'NexaBold';}
	.st8{font-size:24.1734px;}
</style>
<g>
	<defs>
		<path id="SVGID_1_" d="M105,110.8H43.9c-11.3,0-20.4-9.1-20.4-20.4V29.3c0-11.3,9.1-20.4,20.4-20.4H105c11.3,0,20.4,9.1,20.4,20.4    v61.1C125.5,101.6,116.3,110.8,105,110.8z"/>
	</defs>
	<clipPath id="SVGID_2_">
		<use xlink:href="#SVGID_1_" style="overflow:visible;"/>
	</clipPath>
	<linearGradient id="SVGID_3_" gradientUnits="userSpaceOnUse" x1="20.6502" y1="90.8862" x2="128.3218" y2="28.722">
		<stop offset="0" style="stop-color: rgba(255,255,255,.5);"/>
		<stop offset="1" style="stop-color: rgba(255,255,255,.3);"/>
	</linearGradient>
	<path class="st0" d="M105,110.8H43.9c-11.3,0-20.4-9.1-20.4-20.4V29.3c0-11.3,9.1-20.4,20.4-20.4H105c11.3,0,20.4,9.1,20.4,20.4   v61.1C125.5,101.6,116.3,110.8,105,110.8z"/>
	<g class="st1">
		<path class="st2" d="M98.3,69.7c0,13.3-10.7,24-24,24s-24-10.7-24-24s15-37.4,24-51.7C83,32.1,98.3,56.4,98.3,69.7z"/>
		<g class="st3">
			<defs>
				<path id="SVGID_4_" class="st3" d="M98.3,69.7c0,13.3-10.7,24-24,24s-24-10.7-24-24s15-37.4,24-51.7      C83,32.1,98.3,56.4,98.3,69.7z"/>
			</defs>
			<clipPath id="SVGID_5_">
				<use xlink:href="#SVGID_4_" style="overflow:visible;"/>
			</clipPath>
			<rect x="34.9" y="18" class="st4" width="39.5" height="75.7"/>
		</g>
	</g>
	
		<rect x="96.5" y="73.8" transform="matrix(0.7071 -0.7071 0.7071 0.7071 -41.9931 101.9684)" class="st5" width="11.1" height="55.8"/>
	
		<ellipse transform="matrix(0.7071 -0.7071 0.7071 0.7071 -30.4316 74.0566)" class="st5" cx="74.2" cy="73.8" rx="10.3" ry="14.3"/>
</g>
<text transform="matrix(1 0 0 1 23.5062 133.591)" class="st6 st7 st8">jobmatch</text>
</svg>